<svg width="600" height="150" viewBox="0 0 600 150" fill="none" xmlns="http://www.w3.org/2000/svg">
<path d="M222.257 135C217.857 135 213.913 134.419 210.425 133.257C206.938 132.178 203.866 130.726 201.209 128.9C198.635 127.158 196.476 125.166 194.733 122.925C193.072 120.768 191.827 118.568 190.996 116.328L208.931 109.232C210.093 112.386 211.92 114.71 214.411 116.203C216.902 117.78 219.517 118.568 222.257 118.568C226.741 118.568 230.353 117.116 233.093 114.212C235.916 111.307 237.327 107.158 237.327 101.763V98.4025H236.082C232.262 103.548 226.45 106.12 218.645 106.12C215.158 106.12 211.712 105.415 208.308 104.004C204.904 102.51 201.832 100.436 199.092 97.7801C196.352 95.0415 194.152 91.722 192.491 87.8216C190.83 83.9211 190 79.5228 190 74.6265C190 69.7303 190.83 65.3319 192.491 61.4315C194.152 57.5311 196.352 54.2531 199.092 51.5975C201.832 48.8589 204.904 46.7842 208.308 45.3734C211.712 43.8797 215.158 43.1328 218.645 43.1328C226.45 43.1328 232.262 45.7054 236.082 50.8506H237.327V45.1245H255.262V100.892C255.262 105.871 254.473 110.436 252.896 114.585C251.401 118.817 249.201 122.427 246.295 125.415C243.472 128.485 240.026 130.851 235.957 132.51C231.889 134.17 227.322 135 222.257 135ZM223.005 89.1909C224.748 89.1909 226.45 88.9004 228.111 88.3195C229.855 87.6556 231.391 86.7427 232.719 85.5809C234.131 84.3361 235.252 82.8008 236.082 80.9751C236.912 79.1494 237.327 77.0332 237.327 74.6265C237.327 72.2199 236.912 70.1037 236.082 68.278C235.252 66.4523 234.131 64.9585 232.719 63.7967C231.391 62.5519 229.855 61.639 228.111 61.0581C226.45 60.3942 224.748 60.0622 223.005 60.0622C221.261 60.0622 219.517 60.3942 217.774 61.0581C216.113 61.639 214.577 62.5519 213.165 63.7967C211.837 64.9585 210.758 66.4523 209.927 68.278C209.097 70.1037 208.682 72.2199 208.682 74.6265C208.682 77.0332 209.097 79.1494 209.927 80.9751C210.758 82.8008 211.837 84.3361 213.165 85.5809C214.577 86.7427 216.113 87.6556 217.774 88.3195C219.517 88.9004 221.261 89.1909 223.005 89.1909Z" fill="white"/>
<path d="M305.767 98.4025H304.522C300.37 104.875 294.143 108.112 285.84 108.112C278.201 108.112 272.513 105.664 268.777 100.768C265.041 95.8713 263.172 89.4398 263.172 81.473V45.1245H281.854V79.3568C281.854 82.6763 282.643 85.4149 284.221 87.5726C285.798 89.6473 288.248 90.6846 291.569 90.6846C295.803 90.6846 299 89.0664 301.159 85.8299C303.401 82.5934 304.522 78.361 304.522 73.1328V45.1245H323.203V106.12H305.767V98.4025Z" fill="white"/>
<path d="M342.489 38.4025C340.828 38.4025 339.292 38.112 337.88 37.5311C336.469 36.8672 335.223 36.0373 334.144 35.0415C333.148 33.9626 332.317 32.7178 331.653 31.3071C331.072 29.8963 330.781 28.361 330.781 26.7012C330.781 25.1245 331.072 23.6307 331.653 22.2199C332.317 20.7261 333.148 19.4813 334.144 18.4855C335.223 17.4066 336.469 16.5768 337.88 15.9959C339.292 15.3319 340.828 15 342.489 15C344.066 15 345.561 15.3319 346.972 15.9959C348.467 16.5768 349.712 17.4066 350.709 18.4855C351.788 19.4813 352.618 20.7261 353.199 22.2199C353.864 23.6307 354.196 25.1245 354.196 26.7012C354.196 28.361 353.864 29.8963 353.199 31.3071C352.618 32.7178 351.788 33.9626 350.709 35.0415C349.712 36.0373 348.467 36.8672 346.972 37.5311C345.561 38.112 344.066 38.4025 342.489 38.4025ZM333.148 106.12V45.1245H351.829V106.12H333.148Z" fill="white"/>
<path d="M406.061 99.3983H404.816C403.404 101.805 401.204 103.88 398.215 105.622C395.309 107.282 391.614 108.112 387.13 108.112C383.228 108.112 379.492 107.324 375.921 105.747C372.351 104.17 369.196 101.971 366.456 99.1494C363.799 96.2448 361.682 92.8008 360.104 88.8174C358.526 84.834 357.738 80.4357 357.738 75.6224C357.738 70.8091 358.526 66.4108 360.104 62.4274C361.682 58.444 363.799 55.0415 366.456 52.2199C369.196 49.3153 372.351 47.0747 375.921 45.4979C379.492 43.9212 383.228 43.1328 387.13 43.1328C391.614 43.1328 395.309 44.0041 398.215 45.7469C401.204 47.4066 403.404 49.4398 404.816 51.8465H406.061L404.816 43.1328V16.9917H423.498V106.12H406.061V99.3983ZM391.24 90.6846C393.233 90.6846 395.101 90.3527 396.845 89.6888C398.672 88.9419 400.249 87.946 401.578 86.7012C402.989 85.3734 404.069 83.7967 404.816 81.9709C405.646 80.0622 406.061 77.946 406.061 75.6224C406.061 73.2987 405.646 71.224 404.816 69.3983C404.069 67.5726 402.989 65.9958 401.578 64.668C400.249 63.3402 398.672 62.3444 396.845 61.6805C395.101 60.9336 393.233 60.5602 391.24 60.5602C389.248 60.5602 387.338 60.9336 385.511 61.6805C383.768 62.3444 382.19 63.3402 380.779 64.668C379.45 65.9958 378.371 67.5726 377.54 69.3983C376.793 71.224 376.419 73.2987 376.419 75.6224C376.419 77.946 376.793 80.0622 377.54 81.9709C378.371 83.7967 379.45 85.3734 380.779 86.7012C382.19 87.946 383.768 88.9419 385.511 89.6888C387.338 90.3527 389.248 90.6846 391.24 90.6846Z" fill="white"/>
<path d="M490.929 91.307C487.94 96.5353 483.996 100.643 479.098 103.631C474.282 106.618 468.428 108.112 461.537 108.112C456.804 108.112 452.403 107.324 448.335 105.747C444.349 104.087 440.862 101.805 437.873 98.9004C434.884 95.9958 432.559 92.5933 430.898 88.6929C429.238 84.7095 428.408 80.3527 428.408 75.6224C428.408 71.2241 429.238 67.0747 430.898 63.1743C432.559 59.1909 434.842 55.7469 437.748 52.8423C440.738 49.8548 444.183 47.4896 448.086 45.7469C452.071 44.0041 456.389 43.1328 461.038 43.1328C466.103 43.1328 470.545 43.9626 474.365 45.6224C478.267 47.2821 481.505 49.5643 484.079 52.4689C486.653 55.2904 488.605 58.6514 489.933 62.5518C491.262 66.3693 491.926 70.4772 491.926 74.8755C491.926 75.5394 491.884 76.2033 491.801 76.8672C491.801 77.5311 491.76 78.112 491.677 78.6099C491.594 79.1909 491.552 79.7303 491.552 80.2282H446.591C447.504 84.2116 449.373 87.1162 452.196 88.9419C455.019 90.7676 458.174 91.6805 461.661 91.6805C465.148 91.6805 468.013 90.9336 470.255 89.4398C472.58 87.946 474.406 86.0373 475.735 83.7137L490.929 91.307ZM474.365 67.5311C474.199 66.5353 473.784 65.4564 473.119 64.2946C472.538 63.1328 471.666 62.0954 470.504 61.1826C469.425 60.1867 468.054 59.3983 466.394 58.8174C464.816 58.1535 463.031 57.8216 461.038 57.8216C458.132 57.8216 455.434 58.6514 452.943 60.3112C450.452 61.9709 448.625 64.3776 447.463 67.5311H474.365Z" fill="white"/>
<path d="M523.223 108.112C518.988 108.112 515.252 107.614 512.014 106.618C508.775 105.622 505.952 104.336 503.544 102.759C501.22 101.1 499.268 99.2323 497.691 97.1577C496.113 95 494.909 92.8423 494.079 90.6846L510.893 83.5892C512.055 86.4108 513.674 88.4855 515.75 89.8133C517.826 91.0581 520.317 91.6805 523.223 91.6805C525.714 91.6805 527.623 91.307 528.952 90.5602C530.363 89.7303 531.069 88.6929 531.069 87.4481C531.069 86.0373 530.405 84.9585 529.076 84.2116C527.748 83.3817 525.631 82.6348 522.724 81.9709L514.38 80.2282C512.387 79.8133 510.353 79.1494 508.277 78.2365C506.201 77.3236 504.292 76.1203 502.548 74.6265C500.804 73.1328 499.393 71.39 498.314 69.3983C497.234 67.3236 496.694 64.9585 496.694 62.3029C496.694 59.3983 497.317 56.7842 498.563 54.4606C499.891 52.0539 501.676 50.0207 503.918 48.361C506.16 46.7012 508.817 45.4149 511.889 44.5021C514.961 43.5892 518.324 43.1328 521.977 43.1328C528.288 43.1328 533.726 44.2531 538.293 46.4938C542.859 48.6514 546.305 52.3029 548.63 57.4481L532.564 64.0456C531.484 61.888 529.948 60.3112 527.955 59.3153C526.046 58.3195 524.095 57.8216 522.102 57.8216C519.943 57.8216 518.199 58.195 516.871 58.9419C515.542 59.6888 514.878 60.6016 514.878 61.6805C514.878 62.8423 515.542 63.7967 516.871 64.5436C518.282 65.2075 519.985 65.7884 521.977 66.2863L531.443 68.527C537.67 70.0207 542.32 72.4274 545.392 75.7469C548.464 79.0664 550 82.9668 550 87.4481C550 90.1867 549.336 92.8008 548.007 95.2904C546.762 97.7801 544.935 99.9792 542.527 101.888C540.202 103.797 537.379 105.29 534.058 106.369C530.82 107.531 527.208 108.112 523.223 108.112Z" fill="white"/>
<path d="M574.486 45V33.1006H570V30H582.471V33.1006H577.985V45H574.486Z" fill="white"/>
<path d="M583.716 30H587.17L591.746 37.3324H591.97L596.546 30H600V45H596.546V38.3589L596.77 35.845H596.546L592.89 41.8156H590.826L587.17 35.845H586.946L587.17 38.3589V45H583.716V30Z" fill="white"/>
<path fill-rule="evenodd" clip-rule="evenodd" d="M75 150C116.421 150 150 116.421 150 75C150 33.5786 116.421 0 75 0C33.5786 0 0 33.5786 0 75C0 116.421 33.5786 150 75 150ZM105.75 48.3629H106.375C107.083 47.1579 108.167 46.1399 109.625 45.3089C111.125 44.4363 113 44 115.25 44C117.208 44 119.083 44.3947 120.875 45.1842C122.667 45.9737 124.229 47.0956 125.562 48.5499C126.938 49.9626 128.021 51.6662 128.812 53.6607C129.604 55.6551 130 57.8573 130 60.2673C130 62.6773 129.604 64.8795 128.812 66.874C128.021 68.8684 126.938 70.5928 125.562 72.0471C124.229 73.4598 122.667 74.5609 120.875 75.3504C119.083 76.1399 117.208 76.5346 115.25 76.5346C113 76.5346 111.125 76.1191 109.625 75.2881C108.167 74.4155 107.083 73.3767 106.375 72.1717H105.75L106.375 76.5346V89H97V44.9972H105.75V48.3629ZM113.188 52.7258C112.188 52.7258 111.229 52.9127 110.312 53.2867C109.438 53.6191 108.646 54.1177 107.938 54.7826C107.271 55.4474 106.729 56.2368 106.312 57.151C105.937 58.0651 105.75 59.1039 105.75 60.2673C105.75 61.4307 105.937 62.4903 106.312 63.446C106.729 64.3601 107.271 65.1496 107.938 65.8144C108.646 66.4377 109.438 66.9363 110.312 67.3102C111.229 67.6427 112.188 67.8089 113.188 67.8089C114.188 67.8089 115.125 67.6427 116 67.3102C116.917 66.9363 117.708 66.4377 118.375 65.8144C119.083 65.1496 119.625 64.3601 120 63.446C120.417 62.4903 120.625 61.4307 120.625 60.2673C120.625 59.1039 120.417 58.0651 120 57.151C119.625 56.2368 119.083 55.4474 118.375 54.7826C117.708 54.1177 116.917 53.6191 116 53.2867C115.125 52.9127 114.188 52.7258 113.188 52.7258ZM32.785 62H24V101H32.785V85.095H48.215V101H57V62H48.215V77.0335H32.785V62ZM82.9659 68.1494C81.1477 67.3831 79.1591 67 77 67C74.8409 67 72.8333 67.3831 70.9773 68.1494C69.1591 68.8774 67.5682 69.9119 66.2045 71.2529C64.8788 72.5556 63.8371 74.1264 63.0795 75.9655C62.3598 77.8046 62 79.8161 62 82C62 84.1839 62.3598 86.1954 63.0795 88.0345C63.8371 89.8736 64.8788 91.4636 66.2045 92.8046C67.5682 94.1073 69.1591 95.1418 70.9773 95.9081C72.8333 96.636 74.8409 97 77 97C79.1591 97 81.1477 96.636 82.9659 95.9081C84.822 95.1418 86.4129 94.1073 87.7386 92.8046C89.1023 91.4636 90.1439 89.8736 90.8636 88.0345C91.6212 86.1954 92 84.1839 92 82C92 79.8161 91.6212 77.8046 90.8636 75.9655C90.1439 74.1264 89.1023 72.5556 87.7386 71.2529C86.4129 69.9119 84.822 68.8774 82.9659 68.1494ZM79.4432 88.4943C78.6856 88.8008 77.8712 88.954 77 88.954C76.1288 88.954 75.2955 88.8008 74.5 88.4943C73.7424 88.1494 73.0606 87.6897 72.4545 87.1149C71.8485 86.5019 71.375 85.7739 71.0341 84.931C70.6932 84.0498 70.5227 83.0728 70.5227 82C70.5227 80.9272 70.6932 79.9693 71.0341 79.1264C71.375 78.2835 71.8485 77.5556 72.4545 76.9425C73.0606 76.3295 73.7424 75.8697 74.5 75.5632C75.2955 75.2184 76.1288 75.046 77 75.046C77.8712 75.046 78.6856 75.2184 79.4432 75.5632C80.2386 75.8697 80.9394 76.3295 81.5455 76.9425C82.1515 77.5556 82.625 78.2835 82.9659 79.1264C83.3068 79.9693 83.4773 80.9272 83.4773 82C83.4773 83.0728 83.3068 84.0498 82.9659 84.931C82.625 85.7739 82.1515 86.5019 81.5455 87.1149C80.9394 87.6897 80.2386 88.1494 79.4432 88.4943Z" fill="white"/>
</svg>
