<svg width="150" height="150" viewBox="0 0 150 150" fill="none" xmlns="http://www.w3.org/2000/svg">
<path fill-rule="evenodd" clip-rule="evenodd" d="M75 150C116.421 150 150 116.421 150 75C150 33.5786 116.421 0 75 0C33.5786 0 0 33.5786 0 75C0 116.421 33.5786 150 75 150ZM105.75 48.3629H106.375C107.083 47.1579 108.167 46.1399 109.625 45.3089C111.125 44.4363 113 44 115.25 44C117.208 44 119.083 44.3947 120.875 45.1842C122.667 45.9737 124.229 47.0956 125.562 48.5499C126.938 49.9626 128.021 51.6662 128.812 53.6607C129.604 55.6551 130 57.8573 130 60.2673C130 62.6773 129.604 64.8795 128.812 66.874C128.021 68.8684 126.938 70.5928 125.562 72.0471C124.229 73.4598 122.667 74.5609 120.875 75.3504C119.083 76.1399 117.208 76.5346 115.25 76.5346C113 76.5346 111.125 76.1191 109.625 75.2881C108.167 74.4155 107.083 73.3767 106.375 72.1717H105.75L106.375 76.5346V89H97V44.9972H105.75V48.3629ZM113.188 52.7258C112.188 52.7258 111.229 52.9127 110.312 53.2867C109.438 53.6191 108.646 54.1177 107.938 54.7826C107.271 55.4474 106.729 56.2368 106.312 57.151C105.937 58.0651 105.75 59.1039 105.75 60.2673C105.75 61.4307 105.937 62.4903 106.312 63.446C106.729 64.3601 107.271 65.1496 107.938 65.8144C108.646 66.4377 109.438 66.9363 110.312 67.3102C111.229 67.6427 112.188 67.8089 113.188 67.8089C114.188 67.8089 115.125 67.6427 116 67.3102C116.917 66.9363 117.708 66.4377 118.375 65.8144C119.083 65.1496 119.625 64.3601 120 63.446C120.417 62.4903 120.625 61.4307 120.625 60.2673C120.625 59.1039 120.417 58.0651 120 57.151C119.625 56.2368 119.083 55.4474 118.375 54.7826C117.708 54.1177 116.917 53.6191 116 53.2867C115.125 52.9127 114.188 52.7258 113.188 52.7258ZM32.785 62H24V101H32.785V85.095H48.215V101H57V62H48.215V77.0335H32.785V62ZM82.9659 68.1494C81.1477 67.3831 79.1591 67 77 67C74.8409 67 72.8333 67.3831 70.9773 68.1494C69.1591 68.8774 67.5682 69.9119 66.2045 71.2529C64.8788 72.5556 63.8371 74.1264 63.0795 75.9655C62.3598 77.8046 62 79.8161 62 82C62 84.1839 62.3598 86.1954 63.0795 88.0345C63.8371 89.8736 64.8788 91.4636 66.2045 92.8046C67.5682 94.1073 69.1591 95.1418 70.9773 95.9081C72.8333 96.636 74.8409 97 77 97C79.1591 97 81.1477 96.636 82.9659 95.9081C84.822 95.1418 86.4129 94.1073 87.7386 92.8046C89.1023 91.4636 90.1439 89.8736 90.8636 88.0345C91.6212 86.1954 92 84.1839 92 82C92 79.8161 91.6212 77.8046 90.8636 75.9655C90.1439 74.1264 89.1023 72.5556 87.7386 71.2529C86.4129 69.9119 84.822 68.8774 82.9659 68.1494ZM79.4432 88.4943C78.6856 88.8008 77.8712 88.954 77 88.954C76.1288 88.954 75.2955 88.8008 74.5 88.4943C73.7424 88.1494 73.0606 87.6897 72.4545 87.1149C71.8485 86.5019 71.375 85.7739 71.0341 84.931C70.6932 84.0498 70.5227 83.0728 70.5227 82C70.5227 80.9272 70.6932 79.9693 71.0341 79.1264C71.375 78.2835 71.8485 77.5556 72.4545 76.9425C73.0606 76.3295 73.7424 75.8697 74.5 75.5632C75.2955 75.2184 76.1288 75.046 77 75.046C77.8712 75.046 78.6856 75.2184 79.4432 75.5632C80.2386 75.8697 80.9394 76.3295 81.5455 76.9425C82.1515 77.5556 82.625 78.2835 82.9659 79.1264C83.3068 79.9693 83.4773 80.9272 83.4773 82C83.4773 83.0728 83.3068 84.0498 82.9659 84.931C82.625 85.7739 82.1515 86.5019 81.5455 87.1149C80.9394 87.6897 80.2386 88.1494 79.4432 88.4943Z" fill="black"/>
</svg>
